<svg height='100px' width='100px'  fill="#FFFFFF" xmlns="http://www.w3.org/2000/svg" data-name="Layer 1" viewBox="0 0 512 512" x="0px" y="0px"><title>Audio</title><path d="M0,96H128V32H0V96Z"></path><path d="M128,128H0v64H128V128Z"></path><path d="M128,224H0v64H128V224Z"></path><path d="M384,288H512V224H384v64Z"></path><path d="M0,320v64H128V320H0Z"></path><path d="M320,320H192v64H320V320Z"></path><path d="M384,384H512V320H384v64Z"></path><path d="M128,416H0v64H128V416Z"></path><path d="M320,416H192v64H320V416Z"></path><path d="M512,416H384v64H512V416Z"></path></svg>