<svg height='100px' width='100px'  fill="#FFFFFF" xmlns="http://www.w3.org/2000/svg" data-name="Layer 1" viewBox="0 0 512 512" x="0px" y="0px"><defs><style>.cls-1{fill:none;}</style></defs><title>vdeo</title><path class="cls-1" d="M409,97.54H103a57.47,57.47,0,0,0-57.41,57.41V357.05A57.48,57.48,0,0,0,103,414.47H409a57.48,57.48,0,0,0,57.41-57.41V154.95A57.47,57.47,0,0,0,409,97.54ZM180.78,356V156L354,256Z"></path><path d="M409,52H103a103.08,103.08,0,0,0-103,103V357.05A103.08,103.08,0,0,0,103,460H409a103.08,103.08,0,0,0,103-103V154.95A103.08,103.08,0,0,0,409,52Zm57.41,305.07A57.48,57.48,0,0,1,409,414.47H103a57.48,57.48,0,0,1-57.41-57.41V154.95A57.47,57.47,0,0,1,103,97.54H409a57.47,57.47,0,0,1,57.41,57.41V357.05Z"></path><polygon points="180.78 356 353.99 256 180.78 156 180.78 356"></polygon></svg>