<svg height='100px' width='100px'  fill="#FFFFFF" xmlns="http://www.w3.org/2000/svg" viewBox="0 0 82.81 82.81" x="0px" y="0px"><defs><style>.cls-1{fill:#FFFFFF;}</style></defs><title>Fichier 1018</title><g data-name="Calque 2"><g data-name="Calque 2"><path class="cls-1" d="M41.4,0A41.41,41.41,0,1,0,82.81,41.41,41.45,41.45,0,0,0,41.4,0ZM54.52,45.07,45.21,57.89a4.7,4.7,0,0,1-3.81,1.76,4.76,4.76,0,0,1-3.82-1.75L28.29,45.09a2.91,2.91,0,0,1,0-3.51,4.7,4.7,0,0,1,3.82-1.76h4.67v-13a2.81,2.81,0,0,1,.19-1,4.59,4.59,0,0,1,4.44-2.65,4.61,4.61,0,0,1,4.44,2.65,3,3,0,0,1,.18,1v13H50.7a4.7,4.7,0,0,1,3.82,1.76A2.88,2.88,0,0,1,54.52,45.07Z"></path></g></g></svg>